<?xml version="1.0" encoding="UTF-8" standalone="no"?>
<!-- Created with Inkscape (http://www.inkscape.org/) -->

<svg
   xmlns:dc="http://purl.org/dc/elements/1.1/"
   xmlns:cc="http://creativecommons.org/ns#"
   xmlns:rdf="http://www.w3.org/1999/02/22-rdf-syntax-ns#"
   xmlns:svg="http://www.w3.org/2000/svg"
   xmlns="http://www.w3.org/2000/svg"
   xmlns:sodipodi="http://sodipodi.sourceforge.net/DTD/sodipodi-0.dtd"
   xmlns:inkscape="http://www.inkscape.org/namespaces/inkscape"
   width="657.70251"
   height="753.38861"
   id="svg2"
   version="1.1"
   inkscape:version="0.91 r13725"
   sodipodi:docname="icon.svg"
   inkscape:export-filename="E:\Projects\Android\Wirebug-win\app\src\main\res\mipmap-xxxhdpi\ic_launcher.png"
   inkscape:export-xdpi="22.940001"
   inkscape:export-ydpi="22.940001">
  <defs
     id="defs4" />
  <sodipodi:namedview
     id="base"
     pagecolor="#ffffff"
     bordercolor="#666666"
     borderopacity="1.0"
     inkscape:pageopacity="0.0"
     inkscape:pageshadow="2"
     inkscape:zoom="0.70710678"
     inkscape:cx="292.49546"
     inkscape:cy="219.94675"
     inkscape:document-units="px"
     inkscape:current-layer="layer1"
     showgrid="false"
     showborder="false"
     inkscape:window-width="1355"
     inkscape:window-height="914"
     inkscape:window-x="171"
     inkscape:window-y="32"
     inkscape:window-maximized="0"
     fit-margin-top="0"
     fit-margin-left="0"
     fit-margin-right="0"
     fit-margin-bottom="0" />
  <metadata
     id="metadata7">
    <rdf:RDF>
      <cc:Work
         rdf:about="">
        <dc:format>image/svg+xml</dc:format>
        <dc:type
           rdf:resource="http://purl.org/dc/dcmitype/StillImage" />
        <dc:title></dc:title>
      </cc:Work>
    </rdf:RDF>
  </metadata>
  <g
     inkscape:label="Layer 1"
     inkscape:groupmode="layer"
     id="layer1"
     transform="translate(-5,-293.97358)">
    <path
       style="fill:#00aad4;stroke:#000000;stroke-width:1px;stroke-linecap:butt;stroke-linejoin:miter;stroke-opacity:1"
       d="m 118.55794,760.28905 c -11.42857,-5.71429 0,0 0,0 z"
       id="path3859"
       inkscape:connector-curvature="0" />
    <g
       id="g4257">
      <path
         inkscape:connector-curvature="0"
         id="path3387"
         d="M 333.79561,293.97358 A 299.55554,299.55554 0 0 0 74.242872,444.72553 l 42.767578,24.69141 a 250,250 0 0 1 216.78516,-125.88672 250,250 0 0 1 216.6875,125.94336 l 42.97656,-24.8125 A 299.55554,299.55554 0 0 0 333.79561,293.97358 Z m 0,99.85156 A 199.7037,199.70369 0 0 0 160.61006,494.58881 l 42.92383,24.78321 a 150,150 0 0 1 130.26172,-75.8418 150,150 0 0 1 130.19336,75.88086 l 43.07422,-24.86914 A 199.7037,199.70369 0 0 0 333.79561,393.82514 Z m 0,99.85156 a 99.851852,99.851852 0 0 0 -86.81836,50.77735 l 43.08203,24.87304 a 50,50 0 0 1 43.73633,-25.79687 50,50 0 0 1 43.69922,25.81836 L 420.6667,544.4228 a 99.851852,99.851852 0 0 0 -86.87109,-50.7461 z"
         style="fill:#00aad4;fill-opacity:1;fill-rule:evenodd;stroke:none;stroke-width:0.8888889px;stroke-linecap:butt;stroke-linejoin:miter;stroke-opacity:1" />
      <g
         id="g4242">
        <g
           id="g4177"
           transform="translate(5.0000676,-4.9999637)">
          <rect
             transform="matrix(-0.99997083,0.0076381,-0.0057932,0.99998322,0,0)"
             y="797.51855"
             x="-662.34198"
             height="48.857231"
             width="149.72133"
             id="rect4183-7"
             style="fill:#00aad4;fill-opacity:1"
             inkscape:transform-center-x="9.0806385"
             inkscape:transform-center-y="-23.493767" />
          <rect
             inkscape:transform-center-y="-15.805872"
             inkscape:transform-center-x="19.61094"
             style="fill:#00aad4;fill-opacity:1"
             id="rect4242"
             width="149.72133"
             height="48.857231"
             x="-227.85419"
             y="793.6109"
             transform="matrix(-0.86218109,0.5066002,0.49497455,0.86890747,0,0)" />
          <rect
             transform="matrix(-0.86218109,-0.5066002,0.49497455,-0.86890747,0,0)"
             y="-611.724"
             x="-1028.09"
             height="48.857231"
             width="149.72133"
             id="rect4246"
             style="fill:#00aad4;fill-opacity:1"
             inkscape:transform-center-x="19.610936"
             inkscape:transform-center-y="15.805882" />
        </g>
        <g
           id="g4172"
           transform="translate(5.0000093,-4.9999882)">
          <rect
             inkscape:transform-center-y="-23.493767"
             inkscape:transform-center-x="9.0806385"
             style="fill:#00aad4;fill-opacity:1"
             id="rect4240"
             width="149.72133"
             height="48.857231"
             x="-154.60222"
             y="793.64032"
             transform="matrix(-0.99997083,0.0076381,-0.0057932,0.99998322,0,0)" />
          <rect
             transform="matrix(-0.86218109,-0.5066002,0.49497455,-0.86890747,0,0)"
             y="-505.58609"
             x="-499.6785"
             height="48.857231"
             width="149.72133"
             id="rect4244"
             style="fill:#00aad4;fill-opacity:1"
             inkscape:transform-center-x="19.610917"
             inkscape:transform-center-y="15.805815" />
          <rect
             inkscape:transform-center-y="-15.805809"
             inkscape:transform-center-x="19.610915"
             style="fill:#00aad4;fill-opacity:1"
             id="rect4248"
             width="149.72133"
             height="48.857231"
             x="311.61771"
             y="893.30029"
             transform="matrix(-0.86218109,0.5066002,0.49497455,0.86890747,0,0)" />
        </g>
        <g
           id="g4154"
           transform="translate(2.0396423,-9.1933317)">
          <ellipse
             ry="200"
             rx="150"
             cy="817.44617"
             cx="332.595"
             id="path3880"
             style="fill:#00aad4;fill-opacity:1" />
          <g
             transform="translate(8.589325,-15.55635)"
             id="g4364">
            <circle
               style="fill:#d7eef4;fill-opacity:1;stroke:none;stroke-opacity:1"
               id="path4354"
               cx="287.94324"
               cy="693.70831"
               r="15" />
            <circle
               r="15"
               cy="693.70831"
               cx="360.06812"
               id="circle4356"
               style="fill:#d7eef4;fill-opacity:1;stroke:none;stroke-opacity:1" />
          </g>
        </g>
      </g>
    </g>
  </g>
</svg>
