<?xml version="1.0" encoding="UTF-8" standalone="no"?>
<!-- Created with Inkscape (http://www.inkscape.org/) -->
<svg id="svg2" xmlns:rdf="http://www.w3.org/1999/02/22-rdf-syntax-ns#" xmlns="http://www.w3.org/2000/svg" height="512" width="512" version="1.1" xmlns:cc="http://creativecommons.org/ns#" xmlns:dc="http://purl.org/dc/elements/1.1/">
 <metadata id="metadata7">
  <rdf:RDF>
   <cc:Work rdf:about="">
    <dc:format>image/svg+xml</dc:format>
    <dc:type rdf:resource="http://purl.org/dc/dcmitype/StillImage"/>
    <dc:title/>
   </cc:Work>
  </rdf:RDF>
 </metadata>
 <g id="layer1" transform="translate(-5 -535.36)">
  <path id="path3859" d="m118.56 760.29c-11.429-5.7143 0 0 0 0z" stroke="#000" stroke-width="1px" fill="#00aad4"/>
  <g id="g4257" transform="matrix(.67960 0 0 .67960 34.116 335.58)">
   <path id="path3387" d="m333.8 293.97a299.56 299.56 0 0 0 -259.56 150.76l42.768 24.691a250 250 0 0 1 216.79 -125.89 250 250 0 0 1 216.69 125.94l42.977-24.812a299.56 299.56 0 0 0 -259.67 -150.69zm0 99.852a199.7 199.7 0 0 0 -173.19 100.77l42.924 24.783a150 150 0 0 1 130.26 -75.842 150 150 0 0 1 130.19 75.881l43.074-24.869a199.7 199.7 0 0 0 -173.25 -100.71zm0 99.852a99.852 99.852 0 0 0 -86.818 50.777l43.082 24.873a50 50 0 0 1 43.736 -25.797 50 50 0 0 1 43.699 25.818l43.17-24.92a99.852 99.852 0 0 0 -86.871 -50.746z" fill-rule="evenodd" fill="#00aad4"/>
   <g id="g4242">
    <g id="g4177" fill="#00aad4" transform="translate(5.0001 -5)">
     <rect id="rect4183-7" transform="matrix(-.99997 .0076381 -.0057932 .99998 0 0)" height="48.857" width="149.72" y="797.52" x="-662.34"/>
     <rect id="rect4242" transform="matrix(-.86218 .50660 .49497 .86891 0 0)" height="48.857" width="149.72" y="793.61" x="-227.85"/>
     <rect id="rect4246" transform="matrix(-.86218 -.50660 .49497 -.86891 0 0)" height="48.857" width="149.72" y="-611.72" x="-1028.1"/>
    </g>
    <g id="g4172" fill="#00aad4" transform="translate(5 -5)">
     <rect id="rect4240" transform="matrix(-.99997 .0076381 -.0057932 .99998 0 0)" height="48.857" width="149.72" y="793.64" x="-154.6"/>
     <rect id="rect4244" transform="matrix(-.86218 -.50660 .49497 -.86891 0 0)" height="48.857" width="149.72" y="-505.59" x="-499.68"/>
     <rect id="rect4248" transform="matrix(-.86218 .50660 .49497 .86891 0 0)" height="48.857" width="149.72" y="893.3" x="311.62"/>
    </g>
    <g id="g4154" transform="translate(2.0396 -9.1933)">
     <ellipse id="path3880" rx="150" ry="200" cy="817.45" cx="332.6" fill="#00aad4"/>
     <g id="g4364" fill="#d7eef4" transform="translate(8.5893 -15.556)">
      <circle id="path4354" cx="287.94" cy="693.71" r="15"/>
      <circle id="circle4356" cy="693.71" cx="360.07" r="15"/>
     </g>
    </g>
   </g>
  </g>
 </g>
</svg>
