<?xml version="1.0" encoding="UTF-8" standalone="no"?>
<!-- Created with Inkscape (http://www.inkscape.org/) -->

<svg
   xmlns:dc="http://purl.org/dc/elements/1.1/"
   xmlns:cc="http://creativecommons.org/ns#"
   xmlns:rdf="http://www.w3.org/1999/02/22-rdf-syntax-ns#"
   xmlns:svg="http://www.w3.org/2000/svg"
   xmlns="http://www.w3.org/2000/svg"
   xmlns:sodipodi="http://sodipodi.sourceforge.net/DTD/sodipodi-0.dtd"
   xmlns:inkscape="http://www.inkscape.org/namespaces/inkscape"
   width="744.09448819"
   height="1052.3622047"
   id="svg2"
   version="1.1"
   inkscape:version="0.48.4 r9939"
   sodipodi:docname="icon.svg"
   inkscape:export-filename="/home/szx/Projects/Android/Wirebug/app/src/main/res/mipmap-hdpi/ic_launcher.png"
   inkscape:export-xdpi="5.02"
   inkscape:export-ydpi="5.02">
  <defs
     id="defs4" />
  <sodipodi:namedview
     id="base"
     pagecolor="#ffffff"
     bordercolor="#666666"
     borderopacity="1.0"
     inkscape:pageopacity="0.0"
     inkscape:pageshadow="2"
     inkscape:zoom="0.5"
     inkscape:cx="137.52408"
     inkscape:cy="466.72437"
     inkscape:document-units="px"
     inkscape:current-layer="layer1"
     showgrid="false"
     showborder="false"
     inkscape:window-width="1284"
     inkscape:window-height="914"
     inkscape:window-x="251"
     inkscape:window-y="63"
     inkscape:window-maximized="0" />
  <metadata
     id="metadata7">
    <rdf:RDF>
      <cc:Work
         rdf:about="">
        <dc:format>image/svg+xml</dc:format>
        <dc:type
           rdf:resource="http://purl.org/dc/dcmitype/StillImage" />
        <dc:title></dc:title>
      </cc:Work>
    </rdf:RDF>
  </metadata>
  <g
     inkscape:label="Layer 1"
     inkscape:groupmode="layer"
     id="layer1">
    <g
       id="g4133"
       style="fill:#00aad4">
      <rect
         transform="matrix(0.99998272,0.00587894,0.00752673,0.99997167,0,0)"
         y="735.6319"
         x="-511.44791"
         height="66.53183"
         width="264.89056"
         id="rect3892"
         style="opacity:1;fill:#00aad4;fill-opacity:1"
         inkscape:transform-center-x="16.065882"
         inkscape:transform-center-y="-31.992507" />
      <g
         id="g4120"
         style="fill:#00aad4">
        <path
           style="fill:#00aad4;stroke:#000000;stroke-width:1px;stroke-linecap:butt;stroke-linejoin:miter;stroke-opacity:1"
           d="m 29.680307,606.48857 c -11.428571,-5.71429 0,0 0,0 z"
           id="path3859"
           inkscape:connector-curvature="0" />
        <path
           sodipodi:type="arc"
           style="fill:#00aad4;fill-opacity:1"
           id="path3880"
           sodipodi:cx="160"
           sodipodi:cy="778.07648"
           sodipodi:rx="231.42857"
           sodipodi:ry="342.85715"
           d="m 391.42857,778.07648 a 231.42857,342.85715 0 1 1 -462.857144,0 231.42857,342.85715 0 1 1 462.857144,0 z"
           transform="translate(-119.39537,-11.428571)" />
        <rect
           transform="matrix(-0.91289839,0.40818688,-0.42038794,-0.90734447,0,0)"
           y="-622.84814"
           x="-283.45996"
           height="66.53183"
           width="264.89056"
           id="rect3886"
           style="fill:#00aad4;fill-opacity:1" />
        <rect
           inkscape:transform-center-y="35.316515"
           inkscape:transform-center-x="5.8628247"
           style="fill:#00aad4;fill-opacity:1"
           id="rect3890"
           width="264.89056"
           height="66.53183"
           x="-1077.8363"
           y="-735.53156"
           transform="matrix(-0.80461241,-0.59380036,0.58296087,-0.81250023,0,0)" />
        <rect
           transform="matrix(0.99998272,0.00587894,0.00752673,0.99997167,0,0)"
           y="730.82751"
           x="305.74524"
           height="66.53183"
           width="264.89056"
           id="rect3916"
           style="opacity:1;fill:#00aad4;fill-opacity:1"
           inkscape:transform-center-x="16.065882"
           inkscape:transform-center-y="-31.992507" />
        <rect
           style="fill:#00aad4;fill-opacity:1"
           id="rect3918"
           width="264.89056"
           height="66.53183"
           x="-218.08478"
           y="-587.46808"
           transform="matrix(0.91995746,0.3920182,0.40431534,-0.91461965,0,0)" />
        <rect
           transform="matrix(0.80461241,-0.59380036,-0.58296087,-0.81250023,0,0)"
           y="-781.16656"
           x="-1015.3936"
           height="66.53183"
           width="264.89056"
           id="rect3920"
           style="fill:#00aad4;fill-opacity:1"
           inkscape:transform-center-x="-5.8628121"
           inkscape:transform-center-y="35.316502" />
        <g
           id="g4025"
           transform="matrix(1.1359197,0,0,1.0188509,4.4906516,-35.656965)"
           style="fill:#00aad4">
          <path
             inkscape:connector-curvature="0"
             id="path3932"
             d="M 32.039665,-18.18624 C -131.19524,-17.084305 -289.90202,65.705104 -372.94595,209.36321 l 58.46231,28.32917 C -211.684,64.670859 21.05859,-2.362951 207.67096,88.118607 c 70.99387,34.422343 128.1907,88.751563 163.6069,155.352363 l 65.07746,-30.19664 C 394.80431,134.29633 327.24144,69.889488 243.26008,29.169979 175.96104,-3.460879 103.56956,-18.669111 32.039665,-18.18624 z"
             style="fill:#00aad4;fill-opacity:1" />
          <path
             inkscape:connector-curvature="0"
             id="path3938"
             d="M 34.787929,104.22113 C -81.933856,103.69517 -195.93355,162.3704 -255.28049,265.03496 l 65.76977,31.88793 c 66.12826,-113.62728 218.10286,-157.93084 339.83895,-98.90544 45.18323,21.9077 81.74465,56.25373 104.81095,98.34168 L 316.6122,267.81855 C 287.2479,212.00444 239.51527,166.47131 180.16526,137.69465 133.82422,115.22557 84.070457,104.44321 34.787929,104.22113 z"
             style="fill:#00aad4;fill-opacity:1" />
          <path
             inkscape:connector-curvature="0"
             id="path3957"
             d="m 31.84986,234.87356 c -64.36171,-0.30254 -127.25938,33.43906 -160.03012,92.49261 l 58.51442,29.59764 c 29.051185,-52.35083 96.090092,-72.80102 149.720136,-45.66493 20.390914,10.31754 36.787964,26.64002 46.865044,46.65152 L 27.44404,406.08179 -69.66584,356.96381 27.5941,406.1875 187.18456,328.95176 C 171.01774,296.847 144.71242,270.66461 111.99896,254.11202 86.455964,241.18761 59.024808,235.0013 31.84986,234.87356 z"
             style="fill:#00aad4;fill-opacity:1" />
        </g>
      </g>
    </g>
  </g>
</svg>
